<svg class="main-svg" xmlns="http://www.w3.org/2000/svg" xmlns:xlink="http://www.w3.org/1999/xlink" width="700" height="500" style="" viewBox="0 0 700 500"><rect x="0" y="0" width="700" height="500" style="fill: rgb(176, 224, 230); fill-opacity: 1;"/><defs id="defs-c9565a"><g class="clips"><clipPath id="clipc9565axyplot" class="plotclip"><rect width="680" height="480"/></clipPath><clipPath class="axesclip" id="clipc9565ax"><rect x="10" y="0" width="680" height="500"/></clipPath><clipPath class="axesclip" id="clipc9565ay"><rect x="0" y="10" width="700" height="480"/></clipPath><clipPath class="axesclip" id="clipc9565axy"><rect x="10" y="10" width="680" height="480"/></clipPath></g><g class="gradients"/><g class="patterns"/></defs><g class="bglayer"/><g class="layer-below"><g class="imagelayer"/><g class="shapelayer"/></g><g class="cartesianlayer"><g class="subplot xy"><g class="layer-subplot"><g class="shapelayer"/><g class="imagelayer"/></g><g class="gridlayer"><g class="x"/><g class="y"/></g><g class="zerolinelayer"><path class="xzl zl crisp" transform="translate(75.25,0)" d="M0,10v480" style="stroke: rgb(255, 255, 255); stroke-opacity: 1; stroke-width: 2px;"/><path class="yzl zl crisp" transform="translate(0,434.75)" d="M10,0h680" style="stroke: rgb(255, 255, 255); stroke-opacity: 1; stroke-width: 2px;"/></g><path class="xlines-below"/><path class="ylines-below"/><g class="overlines-below"/><g class="xaxislayer-below"/><g class="yaxislayer-below"/><g class="overaxes-below"/><g class="plot" transform="translate(10,10)" clip-path="url(#clipc9565axyplot)"><g class="scatterlayer mlayer"><g class="trace scatter trace0cc01a" style="stroke-miterlimit: 2; opacity: 1;"><g class="fills"/><g class="errorbars"/><g class="lines"><path class="js-line" d="M394.95,55.25L568.96,244.51L477.38,154.38L394.95,55.25" style="vector-effect: non-scaling-stroke; fill: none; stroke: rgb(0, 0, 0); stroke-opacity: 1; stroke-width: 1px; opacity: 1;"/></g><g class="points"/><g class="text"/></g><g class="trace scatter traced99b6a" style="stroke-miterlimit: 2; opacity: 1;"><g class="fills"/><g class="errorbars"/><g class="lines"/><g class="points"><path class="point" transform="translate(65.25,424.75)" d="M25,0A25,25 0 1,1 0,-25A25,25 0 0,1 25,0Z" style="opacity: 1; stroke-width: 1px; fill: rgb(255, 48, 79); fill-opacity: 1; stroke: rgb(112, 128, 144); stroke-opacity: 1;"/><path class="point" transform="translate(294.21,352.65)" d="M25,0A25,25 0 1,1 0,-25A25,25 0 0,1 25,0Z" style="opacity: 1; stroke-width: 1px; fill: rgb(255, 48, 79); fill-opacity: 1; stroke: rgb(112, 128, 144); stroke-opacity: 1;"/><path class="point" transform="translate(202.63,154.38)" d="M25,0A25,25 0 1,1 0,-25A25,25 0 0,1 25,0Z" style="opacity: 1; stroke-width: 1px; fill: rgb(255, 48, 79); fill-opacity: 1; stroke: rgb(112, 128, 144); stroke-opacity: 1;"/><path class="point" transform="translate(541.48,397.71)" d="M25,0A25,25 0 1,1 0,-25A25,25 0 0,1 25,0Z" style="opacity: 1; stroke-width: 1px; fill: rgb(255, 48, 79); fill-opacity: 1; stroke: rgb(112, 128, 144); stroke-opacity: 1;"/><path class="point" transform="translate(477.38,154.38)" d="M25,0A25,25 0 1,1 0,-25A25,25 0 0,1 25,0Z" style="opacity: 1; stroke-width: 1px; fill: rgb(255, 48, 79); fill-opacity: 1; stroke: rgb(112, 128, 144); stroke-opacity: 1;"/><path class="point" transform="translate(101.88,82.29)" d="M25,0A25,25 0 1,1 0,-25A25,25 0 0,1 25,0Z" style="opacity: 1; stroke-width: 1px; fill: rgb(255, 48, 79); fill-opacity: 1; stroke: rgb(112, 128, 144); stroke-opacity: 1;"/><path class="point" transform="translate(340,136.36)" d="M25,0A25,25 0 1,1 0,-25A25,25 0 0,1 25,0Z" style="opacity: 1; stroke-width: 1px; fill: rgb(255, 48, 79); fill-opacity: 1; stroke: rgb(112, 128, 144); stroke-opacity: 1;"/><path class="point" transform="translate(156.83,289.57)" d="M25,0A25,25 0 1,1 0,-25A25,25 0 0,1 25,0Z" style="opacity: 1; stroke-width: 1px; fill: rgb(255, 48, 79); fill-opacity: 1; stroke: rgb(112, 128, 144); stroke-opacity: 1;"/><path class="point" transform="translate(413.27,406.73)" d="M25,0A25,25 0 1,1 0,-25A25,25 0 0,1 25,0Z" style="opacity: 1; stroke-width: 1px; fill: rgb(255, 48, 79); fill-opacity: 1; stroke: rgb(112, 128, 144); stroke-opacity: 1;"/><path class="point" transform="translate(568.96,244.51)" d="M25,0A25,25 0 1,1 0,-25A25,25 0 0,1 25,0Z" style="opacity: 1; stroke-width: 1px; fill: rgb(255, 48, 79); fill-opacity: 1; stroke: rgb(112, 128, 144); stroke-opacity: 1;"/><path class="point" transform="translate(596.43,316.6)" d="M25,0A25,25 0 1,1 0,-25A25,25 0 0,1 25,0Z" style="opacity: 1; stroke-width: 1px; fill: rgb(255, 48, 79); fill-opacity: 1; stroke: rgb(112, 128, 144); stroke-opacity: 1;"/><path class="point" transform="translate(266.73,262.53)" d="M25,0A25,25 0 1,1 0,-25A25,25 0 0,1 25,0Z" style="opacity: 1; stroke-width: 1px; fill: rgb(255, 48, 79); fill-opacity: 1; stroke: rgb(112, 128, 144); stroke-opacity: 1;"/><path class="point" transform="translate(614.75,64.26)" d="M25,0A25,25 0 1,1 0,-25A25,25 0 0,1 25,0Z" style="opacity: 1; stroke-width: 1px; fill: rgb(255, 48, 79); fill-opacity: 1; stroke: rgb(112, 128, 144); stroke-opacity: 1;"/><path class="point" transform="translate(74.41,244.51)" d="M25,0A25,25 0 1,1 0,-25A25,25 0 0,1 25,0Z" style="opacity: 1; stroke-width: 1px; fill: rgb(255, 48, 79); fill-opacity: 1; stroke: rgb(112, 128, 144); stroke-opacity: 1;"/><path class="point" transform="translate(184.31,397.71)" d="M25,0A25,25 0 1,1 0,-25A25,25 0 0,1 25,0Z" style="opacity: 1; stroke-width: 1px; fill: rgb(255, 48, 79); fill-opacity: 1; stroke: rgb(112, 128, 144); stroke-opacity: 1;"/><path class="point" transform="translate(449.9,334.63)" d="M25,0A25,25 0 1,1 0,-25A25,25 0 0,1 25,0Z" style="opacity: 1; stroke-width: 1px; fill: rgb(255, 48, 79); fill-opacity: 1; stroke: rgb(112, 128, 144); stroke-opacity: 1;"/><path class="point" transform="translate(385.79,226.48)" d="M25,0A25,25 0 1,1 0,-25A25,25 0 0,1 25,0Z" style="opacity: 1; stroke-width: 1px; fill: rgb(255, 48, 79); fill-opacity: 1; stroke: rgb(112, 128, 144); stroke-opacity: 1;"/><path class="point" transform="translate(230.1,154.38)" d="M25,0A25,25 0 1,1 0,-25A25,25 0 0,1 25,0Z" style="opacity: 1; stroke-width: 1px; fill: rgb(255, 48, 79); fill-opacity: 1; stroke: rgb(112, 128, 144); stroke-opacity: 1;"/><path class="point" transform="translate(349.16,253.52)" d="M25,0A25,25 0 1,1 0,-25A25,25 0 0,1 25,0Z" style="opacity: 1; stroke-width: 1px; fill: rgb(255, 48, 79); fill-opacity: 1; stroke: rgb(112, 128, 144); stroke-opacity: 1;"/><path class="point" transform="translate(568.96,181.42)" d="M25,0A25,25 0 1,1 0,-25A25,25 0 0,1 25,0Z" style="opacity: 1; stroke-width: 1px; fill: rgb(255, 48, 79); fill-opacity: 1; stroke: rgb(112, 128, 144); stroke-opacity: 1;"/><path class="point" transform="translate(394.95,55.25)" d="M25,0A25,25 0 1,1 0,-25A25,25 0 0,1 25,0Z" style="opacity: 1; stroke-width: 1px; fill: rgb(255, 48, 79); fill-opacity: 1; stroke: rgb(112, 128, 144); stroke-opacity: 1;"/></g><g class="text"><g class="textpoint" transform="translate(0,3)"><text x="65.25" y="424.75" text-anchor="middle" style="font-family: 'Open Sans', verdana, arial, sans-serif; font-size: 12px; fill: rgb(42, 63, 95); fill-opacity: 1; white-space: pre;">spar</text></g><g class="textpoint" transform="translate(0,3)"><text x="294.21" y="352.65" text-anchor="middle" style="font-family: 'Open Sans', verdana, arial, sans-serif; font-size: 12px; fill: rgb(42, 63, 95); fill-opacity: 1; white-space: pre;">spar</text></g><g class="textpoint" transform="translate(0,3)"><text x="202.63" y="154.38" text-anchor="middle" style="font-family: 'Open Sans', verdana, arial, sans-serif; font-size: 12px; fill: rgb(42, 63, 95); fill-opacity: 1; white-space: pre;">spar</text></g><g class="textpoint" transform="translate(0,3)"><text x="541.48" y="397.71" text-anchor="middle" style="font-family: 'Open Sans', verdana, arial, sans-serif; font-size: 12px; fill: rgb(42, 63, 95); fill-opacity: 1; white-space: pre;">spar</text></g><g class="textpoint" transform="translate(0,3)"><text x="477.38" y="154.38" text-anchor="middle" style="font-family: 'Open Sans', verdana, arial, sans-serif; font-size: 12px; fill: rgb(42, 63, 95); fill-opacity: 1; white-space: pre;">spar</text></g><g class="textpoint" transform="translate(0,3)"><text x="101.88" y="82.29" text-anchor="middle" style="font-family: 'Open Sans', verdana, arial, sans-serif; font-size: 12px; fill: rgb(42, 63, 95); fill-opacity: 1; white-space: pre;">mercator</text></g><g class="textpoint" transform="translate(0,3)"><text x="340" y="136.36" text-anchor="middle" style="font-family: 'Open Sans', verdana, arial, sans-serif; font-size: 12px; fill: rgb(42, 63, 95); fill-opacity: 1; white-space: pre;">mercator</text></g><g class="textpoint" transform="translate(0,3)"><text x="156.83" y="289.57" text-anchor="middle" style="font-family: 'Open Sans', verdana, arial, sans-serif; font-size: 12px; fill: rgb(42, 63, 95); fill-opacity: 1; white-space: pre;">mercator</text></g><g class="textpoint" transform="translate(0,3)"><text x="413.27" y="406.73" text-anchor="middle" style="font-family: 'Open Sans', verdana, arial, sans-serif; font-size: 12px; fill: rgb(42, 63, 95); fill-opacity: 1; white-space: pre;">mercator</text></g><g class="textpoint" transform="translate(0,3)"><text x="568.96" y="244.51" text-anchor="middle" style="font-family: 'Open Sans', verdana, arial, sans-serif; font-size: 12px; fill: rgb(42, 63, 95); fill-opacity: 1; white-space: pre;">mercator</text></g><g class="textpoint" transform="translate(0,3)"><text x="596.43" y="316.6" text-anchor="middle" style="font-family: 'Open Sans', verdana, arial, sans-serif; font-size: 12px; fill: rgb(42, 63, 95); fill-opacity: 1; white-space: pre;">tus</text></g><g class="textpoint" transform="translate(0,3)"><text x="266.73" y="262.53" text-anchor="middle" style="font-family: 'Open Sans', verdana, arial, sans-serif; font-size: 12px; fill: rgb(42, 63, 95); fill-opacity: 1; white-space: pre;">tus</text></g><g class="textpoint" transform="translate(0,3)"><text x="614.75" y="64.26" text-anchor="middle" style="font-family: 'Open Sans', verdana, arial, sans-serif; font-size: 12px; fill: rgb(42, 63, 95); fill-opacity: 1; white-space: pre;">hofer</text></g><g class="textpoint" transform="translate(0,3)"><text x="74.41" y="244.51" text-anchor="middle" style="font-family: 'Open Sans', verdana, arial, sans-serif; font-size: 12px; fill: rgb(42, 63, 95); fill-opacity: 1; white-space: pre;">hofer</text></g><g class="textpoint" transform="translate(0,3)"><text x="184.31" y="397.71" text-anchor="middle" style="font-family: 'Open Sans', verdana, arial, sans-serif; font-size: 12px; fill: rgb(42, 63, 95); fill-opacity: 1; white-space: pre;">hofer</text></g><g class="textpoint" transform="translate(0,3)"><text x="449.9" y="334.63" text-anchor="middle" style="font-family: 'Open Sans', verdana, arial, sans-serif; font-size: 12px; fill: rgb(42, 63, 95); fill-opacity: 1; white-space: pre;">hofer</text></g><g class="textpoint" transform="translate(0,3)"><text x="385.79" y="226.48" text-anchor="middle" style="font-family: 'Open Sans', verdana, arial, sans-serif; font-size: 12px; fill: rgb(42, 63, 95); fill-opacity: 1; white-space: pre;">lidl</text></g><g class="textpoint" transform="translate(0,3)"><text x="230.1" y="154.38" text-anchor="middle" style="font-family: 'Open Sans', verdana, arial, sans-serif; font-size: 12px; fill: rgb(42, 63, 95); fill-opacity: 1; white-space: pre;">lidl</text></g><g class="textpoint" transform="translate(0,3)"><text x="349.16" y="253.52" text-anchor="middle" style="font-family: 'Open Sans', verdana, arial, sans-serif; font-size: 12px; fill: rgb(42, 63, 95); fill-opacity: 1; white-space: pre;">lidl</text></g><g class="textpoint" transform="translate(0,3)"><text x="568.96" y="181.42" text-anchor="middle" style="font-family: 'Open Sans', verdana, arial, sans-serif; font-size: 12px; fill: rgb(42, 63, 95); fill-opacity: 1; white-space: pre;">lidl</text></g><g class="textpoint" transform="translate(0,3)"><text x="394.95" y="55.25" text-anchor="middle" style="font-family: 'Open Sans', verdana, arial, sans-serif; font-size: 12px; fill: rgb(42, 63, 95); fill-opacity: 1; white-space: pre;">trenutna lokacija</text></g></g></g></g></g><g class="overplot"/><path class="xlines-above crisp" d="M9,490.5H691M9,9.5H691" style="fill: none; stroke-width: 1px; stroke: rgb(0, 0, 0); stroke-opacity: 1;"/><path class="ylines-above crisp" d="M9.5,10V490M690.5,10V490" style="fill: none; stroke-width: 1px; stroke: rgb(0, 0, 0); stroke-opacity: 1;"/><g class="overlines-above"/><g class="xaxislayer-above"/><g class="yaxislayer-above"/><g class="overaxes-above"/></g></g><g class="polarlayer"/><g class="ternarylayer"/><g class="geolayer"/><g class="funnelarealayer"/><g class="pielayer"/><g class="iciclelayer"/><g class="treemaplayer"/><g class="sunburstlayer"/><g class="glimages"/><defs id="topdefs-c9565a"><g class="clips"/></defs><g class="layer-above"><g class="imagelayer"/><g class="shapelayer"/></g><g class="infolayer"><g class="g-gtitle"/><g class="g-xtitle"/><g class="g-ytitle"/></g></svg>